PathFileType	4	(X/Y/Z)	D:\TRACE\v60_Jaco2_6-2-23\JustBodyDRS_Motion3_4-platform.trc
DataRate	CameraRate	NumFrames	NumMarkers	Units	OrigDataRate	OrigDataStartFrame	OrigNumFrames
100.00	100.00	      41	5	mm	100.00	4376	      7000
Frame#	Time	Left_Front			Right_Front			Left_Aft			Right_Aft			Post			
		X1	Y1	Z1	X2	Y2	Z2	X3	Y3	Z3	X4	Y4	Z4	X5	Y5	Z5	

4376	43.750	-765.31610	-50.50539	-662.00519	805.27722	-51.48061	-639.81189	-696.91455	50.44249	467.56906	717.84985	55.86071	572.84357	31.60178	1214.44104	-1088.44495	
4377	43.760	-765.23901	-50.72247	-662.40137	805.46936	-51.27274	-639.77002	-696.87946	50.56785	467.42642	717.93182	55.75647	572.91278	31.86494	1214.89136	-1088.14990	
4378	43.770	-764.87799	-50.10283	-662.20892	805.61725	-51.21420	-639.75311	-696.60754	50.48034	467.53406	718.02362	55.57820	572.94696	31.95328	1215.08203	-1087.84045	
4379	43.780	-764.67163	-49.87873	-662.06647	805.94586	-50.90769	-639.59656	-696.30603	50.35043	467.62039	718.25293	55.37565	572.98792	32.03215	1215.29932	-1087.52014	
4380	43.790	-764.42371	-49.88258	-662.17578	806.22223	-50.59240	-639.65515	-696.10223	50.28904	467.63013	718.54926	55.23101	573.04327	32.58494	1215.58337	-1087.17676	
4381	43.800	-764.21747	-49.63993	-662.23431	806.43842	-50.48740	-639.60382	-696.00366	50.19048	467.62933	718.94513	55.12365	573.06189	32.74886	1216.15698	-1086.81177	
4382	43.810	-763.81268	-49.28419	-662.11090	806.62854	-50.33088	-639.55237	-695.71143	49.93275	467.72211	718.88354	54.88440	573.10004	33.01000	1216.49011	-1086.36426	
4383	43.820	-763.67743	-49.08485	-662.06348	806.84778	-50.11188	-639.46478	-695.46411	49.87124	467.84601	719.14453	54.64451	573.15808	33.25642	1216.70752	-1086.04309	
4384	43.830	-763.66449	-49.28205	-662.58142	807.08356	-49.81142	-639.42413	-695.30707	49.79514	467.84552	719.44141	54.49364	573.32581	33.41861	1216.81714	-1085.69055	
4385	43.840	-764.14044	-49.53800	-663.48932	807.26947	-49.56959	-639.48022	-695.13568	49.73298	467.81201	719.74762	54.35331	573.44440	33.09360	1216.97900	-1085.18066	
4386	43.850	-763.12335	-48.36743	-662.26837	807.48535	-49.38975	-639.42981	-694.84558	49.48883	467.83032	720.06219	54.32656	573.44257	33.31444	1217.46814	-1084.75342	
4387	43.860	-763.02362	-48.15173	-662.22131	807.66461	-49.30114	-639.45813	-694.51379	49.24009	467.91693	720.29553	54.24771	573.43683	33.83644	1217.81616	-1084.18787	
4388	43.870	-762.66193	-47.88949	-662.05884	807.94727	-49.17362	-639.46509	-694.19019	49.19589	468.04205	720.26166	54.01018	573.50116	34.62310	1218.23035	-1083.82751	
4389	43.880	-762.32056	-47.71978	-661.80396	808.19617	-49.01128	-639.40704	-693.83203	49.01985	468.20712	720.45746	53.89235	573.59174	34.55502	1218.46655	-1083.42456	
4390	43.890	-762.07513	-47.60852	-661.56921	808.54169	-48.73386	-639.41980	-693.86560	49.03286	468.11584	720.82672	53.70805	573.65558	34.69604	1218.74683	-1083.06641	
4391	43.900	-761.89197	-47.43671	-661.47705	808.76868	-48.59825	-639.41321	-693.76782	49.04271	468.05441	721.14941	53.56584	573.70697	34.88673	1218.97339	-1082.85840	
4392	43.910	-761.87970	-47.45993	-661.77930	809.17932	-48.32125	-639.18317	-693.30664	48.64497	468.23923	721.33490	53.39280	573.70148	34.98758	1219.24109	-1082.76611	
4393	43.920	-761.63318	-47.24111	-661.73529	809.30414	-48.21824	-639.23267	-692.93066	48.25182	468.39752	721.48236	53.16677	573.70203	35.49572	1219.65601	-1082.31519	
4394	43.930	-761.26666	-46.86662	-661.45831	809.56958	-48.04758	-639.20709	-692.66052	48.07333	468.43927	721.71533	52.99820	573.79260	36.00021	1219.85681	-1081.80359	
4395	43.940	-760.92090	-46.56826	-661.44080	809.76599	-47.78599	-639.20740	-692.37518	47.85681	468.58365	721.90057	52.89327	573.81378	36.03710	1220.14685	-1081.63916	
4396	43.950	-760.74664	-46.32431	-661.51428	809.93738	-47.62067	-639.16620	-692.05609	47.76334	468.64905	722.01819	52.68686	573.84271	36.25129	1220.55957	-1081.22205	
4397	43.960	-760.38678	-46.39605	-661.53345	810.17371	-47.35766	-639.10229	-691.72003	47.67141	468.76715	722.18933	52.39327	574.05316	36.16448	1220.76697	-1080.79321	
4398	43.970	-760.31232	-45.88421	-661.41949	810.40985	-47.14777	-639.01880	-691.55664	47.58131	468.82880	722.19305	52.02797	574.04083	36.26376	1220.99023	-1080.59399	
4399	43.980	-759.95410	-45.92914	-661.39252	810.52209	-47.03667	-639.03302	-691.44678	47.45859	468.88834	722.41516	51.78454	574.03418	37.23944	1221.39417	-1080.14575	
4400	43.990	-759.82794	-45.68772	-661.38605	810.73834	-46.81318	-638.99048	-691.27197	47.35355	468.99783	723.10077	51.76346	573.88684	37.21852	1221.93311	-1079.36877	
4401	44.000	-759.51599	-45.53755	-661.30151	810.97052	-46.61739	-639.06519	-691.06055	47.22808	469.01608	723.18079	51.67245	573.92047	37.40815	1222.35168	-1078.86035	
4402	44.010	-759.44446	-45.26721	-661.52130	811.21619	-46.32758	-639.04010	-690.81805	47.21022	469.09570	723.97327	52.22215	574.39569	37.37628	1222.67151	-1078.52771	
4403	44.020	-759.20880	-44.98367	-661.38324	811.68750	-45.99391	-638.83771	-690.62598	47.14769	469.07339	724.22473	52.09501	574.31641	37.30745	1222.85840	-1077.88770	
4404	44.030	-758.78052	-44.58651	-661.27429	811.85309	-45.67578	-638.87384	-690.19415	46.77629	468.97162	724.23828	51.56696	574.36023	37.65738	1223.06702	-1077.19922	
4405	44.040	-758.73041	-44.20765	-661.33057	811.98175	-45.47746	-638.85840	-690.04205	46.49109	469.25378	724.44604	51.23959	574.44452	38.42810	1223.74097	-1076.91235	
4406	44.050	-758.63141	-44.08857	-661.42566	812.19049	-45.35550	-638.68909	-689.89032	46.35841	469.42438	724.77759	51.02461	574.60803	38.28175	1224.42273	-1076.46130	
4407	44.060	-758.49725	-44.00884	-661.32056	812.42596	-44.95018	-638.61169	-689.53278	46.06251	469.62524	724.81726	50.87531	574.73016	38.32247	1225.03577	-1076.06421	
4408	44.070	-758.20715	-43.60723	-661.37817	812.59955	-44.52002	-638.63513	-689.33691	45.81993	469.67935	724.90155	50.65778	574.86566	38.56403	1225.70667	-1075.38745	
4409	44.080	-757.87085	-43.22094	-661.19781	812.68097	-44.27659	-638.61432	-689.20422	45.62165	469.74057	725.24817	50.44304	575.01019	38.92823	1225.87378	-1074.66870	
4410	44.090	-757.56879	-42.74276	-661.03052	812.78436	-44.02953	-638.54718	-689.14014	45.54787	469.78619	725.55951	50.19081	575.11664	39.28629	1226.27576	-1073.98401	
4411	44.100	-757.38568	-42.66153	-660.92676	812.93365	-43.68995	-638.46387	-689.02545	45.44429	469.83328	725.74902	49.97922	575.17889	39.15733	1227.05884	-1073.15234	
4412	44.110	-757.42792	-42.79648	-661.25580	813.08990	-43.33024	-638.46637	-688.94574	45.24391	469.85925	725.91907	49.75229	575.20770	39.16702	1227.59839	-1072.37036	
4413	44.120	-757.29382	-42.71192	-661.24622	813.21405	-43.16422	-638.44507	-688.79572	45.00261	469.97839	725.97974	49.48883	575.31335	39.62720	1227.81799	-1071.69531	
4414	44.130	-757.01459	-42.05070	-660.81830	813.35590	-42.79549	-638.36548	-688.65826	44.62402	470.20520	726.23248	49.40083	575.38702	39.95499	1228.42383	-1070.94788	
4415	44.140	-756.82721	-41.24845	-660.48047	813.49481	-42.41543	-638.28906	-688.40717	44.34307	470.35602	726.46423	49.13972	575.53363	39.87009	1229.22681	-1070.15723	
4416	44.150	-756.68335	-40.72444	-660.45410	813.65857	-41.82656	-638.21088	-688.18011	44.08426	470.41486	726.74347	48.83156	575.71606	39.85519	1229.83411	-1069.62097	
